<?xml version="1.0" standalone="no"?>
<!DOCTYPE svg PUBLIC "-//W3C//DTD SVG 20010904//EN"
 "http://www.w3.org/TR/2001/REC-SVG-20010904/DTD/svg10.dtd">
<svg version="1.0" xmlns="http://www.w3.org/2000/svg"
 width="3600.000000pt" height="3600.000000pt" viewBox="0 0 3600.000000 3600.000000"
 preserveAspectRatio="xMidYMid meet">
<metadata>
Created by potrace 1.16, written by Peter Selinger 2001-2019
</metadata>
<g transform="translate(0.000000,3600.000000) scale(0.100000,-0.100000)"
fill="#000000" stroke="none">
<path d="M16530 26365 c-189 -25 -341 -70 -450 -133 -243 -140 -346 -254 -421
-464 l-40 -111 -1 -163 c-1 -157 5 -194 32 -194 4 0 10 57 13 128 8 157 24
215 104 362 92 171 244 311 453 416 100 50 199 73 370 88 228 19 366 2 505
-63 69 -33 91 -50 158 -124 75 -83 98 -99 112 -77 9 15 -54 106 -112 162 -66
65 -190 121 -313 142 -287 50 -273 49 -410 31z"/>
<path d="M21200 26159 c-36 -4 -121 -15 -190 -23 -139 -17 -160 -22 -160 -41
0 -24 51 -75 75 -75 13 0 46 12 74 26 56 27 167 43 317 45 l83 1 57 -61 c31
-34 71 -85 88 -114 17 -28 53 -78 79 -110 26 -32 61 -85 78 -118 l30 -60 -10
-217 c-8 -184 -7 -220 5 -239 8 -12 14 -33 14 -46 0 -23 28 -71 31 -52 0 6 3
102 5 215 3 113 8 249 12 302 4 54 4 107 0 118 -19 52 -207 317 -282 398 -17
19 -43 40 -58 48 -30 15 -138 17 -248 3z"/>
<path d="M16545 26081 c-82 -29 -116 -50 -190 -116 -38 -34 -95 -75 -125 -90
-108 -55 -177 -105 -241 -177 -58 -66 -139 -177 -139 -192 0 -17 29 -1 74 42
77 73 189 137 291 167 150 45 184 50 332 49 119 0 140 2 131 14 -37 44 -108
53 -283 38 -78 -7 -193 -39 -287 -81 -10 -4 -18 -3 -18 1 0 8 121 85 180 114
14 7 50 34 80 60 126 107 205 140 344 140 114 1 197 -12 261 -40 70 -30 152
-111 169 -168 8 -23 7 -23 -73 -18 -45 2 -84 0 -87 -5 -12 -19 19 -38 72 -45
75 -9 151 -64 194 -141 58 -103 36 -172 -79 -248 -51 -34 -81 -46 -123 -51
-86 -10 -137 13 -346 154 -46 32 -51 21 -12 -28 40 -51 125 -109 227 -155 l77
-36 116 7 c63 3 117 6 120 6 30 1 50 -12 112 -71 81 -76 142 -121 167 -121 39
-1 44 -14 31 -85 -7 -38 -19 -69 -26 -72 -8 -3 -59 11 -114 31 -129 46 -197
52 -330 31 -209 -32 -287 -35 -406 -16 -105 17 -162 37 -193 68 -13 13 -16 13
-27 -2 -7 -9 -10 -23 -7 -31 8 -22 105 -64 175 -75 95 -16 272 -13 358 5 93
21 257 22 330 3 54 -14 202 -65 209 -72 8 -8 -34 -155 -44 -155 -7 0 -28 11
-48 24 -78 53 -164 86 -224 87 -52 1 -87 -7 -213 -43 -19 -5 -49 -12 -67 -15
-37 -6 -75 -38 -71 -61 2 -12 24 -19 85 -28 87 -12 113 -27 218 -131 54 -52
100 -76 131 -69 40 10 27 32 -32 52 -45 15 -69 33 -122 89 -65 69 -100 91
-152 97 -41 5 115 57 190 64 57 6 75 3 135 -21 59 -24 111 -52 158 -86 5 -4 6
-25 2 -48 -8 -46 -20 -50 -100 -30 -83 21 -85 8 -7 -49 39 -28 75 -52 78 -52
11 0 41 39 52 68 6 15 23 92 37 172 47 270 57 325 63 340 8 24 13 52 16 100 5
70 26 259 36 325 14 94 -3 317 -30 390 -12 33 -26 64 -31 70 -14 14 -10 -52 6
-120 8 -33 14 -82 14 -110 l0 -50 -14 50 c-8 28 -14 64 -15 81 0 17 -9 43 -21
58 -34 43 -83 29 -61 -17 27 -60 35 -107 22 -132 -11 -20 -21 -25 -69 -27 -31
-2 -56 -7 -56 -13 0 -5 21 -21 46 -35 134 -73 139 -85 142 -294 1 -99 -2 -169
-8 -175 -18 -18 -75 20 -148 101 -39 43 -77 78 -84 78 -7 0 -13 5 -13 10 0 6
4 10 9 10 5 0 19 21 31 46 28 57 24 147 -9 211 -11 23 -21 54 -21 67 0 17 -9
32 -26 43 -15 9 -33 33 -41 52 -49 116 -153 214 -273 256 -133 47 -324 59
-415 26z"/>
<path d="M16770 26003 c0 -14 15 -30 38 -42 26 -14 28 -28 4 -59 -23 -30 -111
-42 -131 -18 -11 13 -11 17 3 22 25 10 19 34 -8 34 -24 0 -56 -23 -56 -39 0
-16 43 -62 72 -77 48 -25 99 -11 147 42 45 48 52 84 25 122 -11 16 -25 22 -55
22 -21 0 -39 -3 -39 -7z"/>
<path d="M20890 25976 c-9 -24 -32 -591 -30 -726 2 -80 13 -110 60 -164 37
-42 62 -38 85 12 9 21 20 45 26 54 10 20 14 181 5 197 -9 15 -15 92 -26 341
-5 124 -14 239 -20 256 -18 52 -84 72 -100 30z"/>
<path d="M21138 25683 c-23 -6 -23 -38 1 -130 21 -80 62 -159 126 -243 52 -69
55 -77 45 -131 -5 -24 -6 -46 -4 -48 9 -10 42 32 54 69 13 39 13 40 -43 132
-50 82 -127 280 -127 324 0 17 -30 32 -52 27z"/>
<path d="M16580 25564 c-47 -42 -116 -97 -155 -122 -38 -25 -102 -66 -141 -91
-87 -57 -230 -105 -293 -99 -34 3 -33 4 62 66 53 35 97 67 97 72 0 17 -17 19
-62 5 -57 -17 -111 -52 -208 -133 -87 -73 -80 -66 -124 -115 -41 -45 -93 -65
-111 -41 -10 14 -12 14 -24 0 -8 -9 -20 -16 -27 -16 -8 0 -43 -13 -77 -28 -74
-34 -118 -82 -148 -162 -19 -50 -20 -72 -17 -235 4 -163 7 -187 31 -258 15
-44 39 -101 53 -128 43 -78 240 -230 318 -244 l31 -6 -3 -122 c-2 -83 -9 -147
-23 -201 -18 -68 -20 -101 -17 -265 2 -102 7 -193 12 -203 6 -12 -7 -28 -51
-65 -33 -26 -77 -63 -99 -80 -21 -18 -42 -33 -46 -33 -4 0 -19 -12 -35 -26
-45 -42 -157 -112 -230 -145 -37 -17 -114 -53 -171 -80 -57 -27 -106 -49 -109
-49 -9 0 -124 -74 -193 -124 -116 -84 -143 -121 -124 -170 9 -23 24 -20 75 12
227 147 377 244 444 287 44 29 112 70 150 92 39 22 82 47 96 56 l27 18 43 -70
c24 -38 71 -120 104 -182 33 -61 89 -154 123 -207 35 -52 67 -102 70 -111 3
-9 41 -76 84 -150 43 -73 78 -135 78 -138 0 -3 9 -18 20 -33 20 -28 140 -240
140 -247 0 -11 104 -155 143 -199 l46 -51 -32 -11 c-18 -5 -84 -28 -147 -50
-63 -22 -128 -43 -143 -46 -23 -5 -27 -11 -22 -27 8 -23 -11 -50 -29 -43 -7 3
-52 -32 -99 -78 -47 -46 -137 -130 -199 -188 -62 -58 -158 -155 -213 -217 -55
-61 -103 -112 -107 -112 -11 -2 -15 180 -5 259 9 76 3 402 -9 452 -5 23 -30
45 -40 35 -2 -2 -9 -28 -14 -58 -6 -30 -24 -87 -40 -128 -17 -40 -30 -82 -30
-92 0 -11 -4 -27 -9 -37 -5 -9 -15 -37 -22 -62 -7 -25 -23 -77 -36 -117 -13
-39 -23 -78 -23 -87 0 -24 -13 -26 -61 -10 -74 26 -263 21 -391 -11 -234 -57
-377 -132 -393 -206 -8 -35 -1 -47 17 -31 13 10 46 29 143 83 113 62 371 129
499 129 60 0 156 -22 156 -36 0 -18 -53 -166 -94 -264 -20 -47 -36 -90 -36
-96 0 -22 -216 -64 -329 -64 -43 0 -112 7 -154 15 -42 9 -108 15 -153 13 l-79
-3 65 -31 c126 -61 312 -67 515 -17 117 29 108 28 100 2 -4 -13 -21 -53 -39
-89 -18 -36 -39 -81 -46 -100 -7 -19 -27 -66 -45 -105 -18 -38 -41 -92 -50
-120 -9 -27 -24 -66 -32 -85 -77 -176 -70 -75 -61 -885 2 -270 1 -296 -19
-380 -12 -49 -33 -120 -47 -156 -37 -100 -87 -307 -80 -335 3 -13 12 -24 20
-24 8 0 14 1 14 3 0 1 12 36 26 77 55 160 98 313 113 403 43 269 47 339 37
607 -14 366 -13 387 30 580 18 77 48 157 82 220 56 101 84 157 102 200 31 75
107 231 142 291 72 122 83 139 89 139 4 0 9 -12 12 -27 6 -33 36 -129 73 -233
14 -41 34 -106 44 -145 21 -84 77 -250 96 -285 21 -37 119 -269 134 -315 7
-22 19 -49 26 -60 7 -11 22 -51 34 -90 24 -78 91 -225 103 -225 11 0 9 38 -3
45 -5 3 -10 19 -10 34 0 15 -4 31 -9 36 -16 19 -60 161 -86 280 -15 66 -42
181 -60 255 -18 74 -43 180 -55 235 -12 55 -35 145 -51 200 -37 130 -62 314
-45 335 6 8 18 28 26 45 25 50 339 363 470 468 69 55 142 118 164 139 21 21
44 38 51 38 8 0 20 6 27 13 15 14 254 97 287 100 11 1 21 4 21 7 0 3 21 12 48
19 26 8 88 26 137 41 50 16 117 36 150 45 33 9 71 21 85 26 14 5 43 13 65 18
22 6 58 15 80 21 59 15 171 41 245 55 36 7 99 20 140 28 41 9 102 21 135 26
33 6 103 20 155 31 52 10 98 19 102 20 4 0 20 -24 34 -52 15 -29 37 -67 50
-84 13 -17 24 -36 24 -42 0 -6 14 -34 30 -63 17 -28 39 -86 50 -128 10 -42 28
-106 39 -143 17 -53 21 -93 22 -195 1 -165 -3 -175 -143 -395 -62 -98 -188
-338 -218 -415 -12 -33 -17 -74 -26 -238 -5 -79 -3 -103 8 -112 19 -17 32 -4
46 44 7 22 19 58 28 79 18 44 21 41 53 -56 20 -58 21 -72 11 -130 -18 -103
-40 -218 -60 -315 -43 -197 -44 -219 -31 -358 18 -202 30 -272 68 -397 61
-206 142 -385 239 -530 53 -80 186 -331 228 -430 11 -25 46 -103 78 -175 33
-71 72 -166 87 -210 16 -44 44 -114 63 -155 19 -41 47 -104 63 -140 34 -83 52
-121 65 -140 5 -8 14 -27 20 -42 5 -16 17 -28 26 -28 14 0 15 7 9 45 -6 47
-16 74 -64 180 -15 33 -33 80 -41 105 -7 25 -23 69 -36 98 -13 29 -24 57 -24
63 0 5 -6 20 -14 32 -7 12 -49 108 -92 212 -43 105 -127 287 -188 405 -242
472 -241 470 -307 710 -37 132 -41 159 -46 301 -6 161 2 247 36 414 63 301 76
408 74 590 -2 144 -7 187 -28 276 -5 20 2 36 37 80 24 30 55 72 69 94 32 49
99 197 99 218 0 8 7 32 16 52 33 79 59 315 44 405 -31 196 -36 216 -73 277
-21 34 -43 87 -49 117 -10 48 -9 60 7 97 28 60 95 144 161 200 118 100 281
198 377 229 22 7 37 18 37 27 0 9 7 24 15 33 41 46 76 325 75 615 0 166 -7
238 -21 230 -4 -3 -11 -27 -14 -53 -3 -26 -10 -81 -15 -122 -6 -41 -12 -161
-15 -267 -5 -181 -21 -315 -43 -374 -9 -22 -23 -30 -79 -45 -65 -17 -190 -77
-282 -136 -25 -15 -49 -24 -53 -20 -4 4 -18 44 -29 87 -29 108 -31 330 -5 420
23 76 97 231 151 315 77 121 67 133 -29 35 -187 -192 -245 -514 -148 -822 l20
-63 -31 -15 c-19 -10 -58 -15 -109 -15 -138 0 -247 50 -249 114 0 11 -10 53
-23 91 -20 63 -25 70 -50 73 -28 3 -28 3 -23 -40 10 -99 38 -250 57 -308 11
-35 19 -64 18 -65 -2 -1 -57 -9 -123 -19 -356 -51 -655 -122 -1080 -256 l-120
-38 -25 28 c-40 45 -115 152 -138 197 -27 53 -81 135 -98 149 -25 20 -87 138
-320 604 l-233 465 27 23 c15 12 52 35 82 51 72 38 165 123 233 214 46 60 63
96 101 210 43 125 47 143 44 218 -2 66 -7 84 -21 93 -26 16 -33 -2 -40 -102
-3 -48 -14 -112 -24 -142 -11 -30 -28 -80 -38 -110 -19 -59 -57 -120 -99 -159
l-26 -24 0 74 c0 41 -5 111 -10 155 -9 74 -8 88 15 168 14 47 25 111 25 141 0
29 4 56 9 59 13 9 25 -112 25 -271 1 -78 4 -145 8 -148 18 -19 38 6 38 47 1
24 7 70 15 103 17 72 19 165 4 250 -6 34 -9 75 -7 90 3 27 6 25 102 -64 54
-51 111 -100 125 -109 14 -9 33 -22 41 -29 168 -133 282 -183 414 -183 126 0
210 54 422 271 163 166 222 237 257 304 57 109 84 197 57 180 -6 -4 -26 -37
-45 -75 -43 -85 -69 -124 -137 -202 -107 -124 -359 -366 -391 -377 -7 -2 -25
-9 -42 -16 -107 -46 -146 -45 -270 5 -143 58 -238 133 -487 384 -81 82 -148
153 -148 158 0 5 -14 41 -31 81 -34 80 -72 188 -67 192 15 12 106 57 159 78
76 30 172 46 286 48 59 1 109 -7 203 -32 122 -32 130 -33 310 -31 251 2 365
12 365 32 0 13 -22 15 -145 14 -80 -1 -181 -2 -225 -4 -77 -2 -216 13 -238 27
-6 3 23 16 65 29 41 12 94 32 117 43 39 20 165 130 158 138 -2 1 -56 16 -121
33 -137 35 -232 68 -313 109 -32 16 -87 40 -121 55 -106 42 -316 62 -342 31
-15 -18 -7 -19 151 -34 120 -11 140 -17 269 -78 72 -34 221 -85 343 -118 32
-9 55 -20 52 -24 -17 -28 -146 -102 -195 -112 -30 -6 -73 -15 -95 -20 -22 -5
-130 -11 -239 -14 -112 -2 -215 -10 -235 -16 -20 -7 -80 -34 -134 -60 -114
-56 -112 -58 -112 61 0 97 15 121 92 151 44 17 86 23 176 27 64 2 117 8 117
12 0 24 -217 56 -301 45 l-47 -7 19 63 c38 122 98 172 262 214 152 40 302 134
462 290 55 54 119 113 143 133 53 43 70 71 51 83 -8 5 -16 9 -19 9 -3 0 -44
-34 -90 -76z m-956 -706 c9 -104 10 -112 25 -253 15 -127 18 -135 96 -279 35
-66 63 -122 60 -124 -2 -2 -10 5 -17 17 -18 29 -28 26 -28 -6 l0 -27 -31 30
c-35 33 -94 119 -122 178 -27 56 -54 164 -56 224 -1 12 -6 22 -12 22 -20 0 -3
-157 25 -233 28 -76 86 -187 98 -187 5 0 8 -5 8 -11 0 -8 -13 -9 -37 -4 -78
14 -157 129 -199 290 -28 104 -25 283 5 347 33 69 86 108 147 108 l31 0 7 -92z"/>
<path d="M7023 25571 c-40 -25 -39 -18 -53 -451 -6 -190 -15 -388 -21 -442
-18 -166 7 -861 40 -1083 5 -38 12 -162 15 -275 8 -271 22 -533 35 -650 12
-99 17 -368 26 -1285 2 -303 8 -578 13 -612 10 -70 -11 -1048 -27 -1243 -5
-69 -12 -303 -16 -520 -6 -425 5 -721 45 -1170 16 -180 20 -294 18 -485 l-3
-250 27 -51 c28 -54 70 -89 94 -80 8 3 25 29 38 58 22 50 24 73 37 448 7 217
13 544 14 725 0 383 12 495 76 720 21 77 48 196 59 265 32 206 50 298 85 440
49 195 63 290 75 510 6 107 18 251 26 320 25 206 17 916 -16 1425 -39 606 -40
620 -30 768 16 248 30 407 45 525 8 62 15 163 15 225 0 104 5 211 30 667 10
178 41 367 74 444 9 22 32 63 51 92 l35 52 77 4 c63 3 97 -1 178 -23 133 -37
259 -89 375 -153 299 -168 340 -180 822 -237 176 -21 200 -22 380 -11 275 17
356 27 598 73 261 49 330 68 440 123 47 23 106 48 132 54 26 7 118 43 205 81
185 82 452 155 623 172 58 6 155 21 215 35 120 27 322 66 455 89 54 10 155 15
277 15 106 0 250 6 320 12 234 23 531 8 833 -42 69 -11 188 -30 265 -41 l140
-21 155 -87 155 -86 37 -70 c54 -104 160 -439 202 -642 39 -186 70 -506 64
-669 -2 -68 1 -96 12 -109 18 -22 55 -36 75 -29 18 7 43 61 54 119 5 22 25 94
45 160 86 277 116 432 116 593 0 59 5 126 10 150 21 89 33 224 43 477 13 332
11 684 -4 702 -17 19 -61 29 -325 67 -442 65 -882 68 -1358 10 -255 -30 -576
-90 -776 -144 -154 -42 -349 -99 -380 -112 -36 -15 -374 -101 -599 -153 -329
-76 -492 -121 -615 -169 -113 -44 -318 -107 -456 -140 -444 -106 -439 -105
-760 -107 l-285 -2 -150 32 c-82 18 -181 44 -220 57 -38 14 -106 36 -150 49
-44 13 -138 46 -210 75 -71 28 -155 60 -185 71 -30 11 -73 28 -95 39 -55 25
-217 88 -290 111 -247 77 -294 99 -590 279 -60 37 -137 82 -170 100 -33 18
-86 50 -118 72 -64 43 -174 98 -197 98 -8 0 -35 14 -60 30 -53 35 -74 37 -117
11z"/>
<path d="M21719 24896 c-2 -2 -85 -7 -184 -11 -99 -4 -196 -8 -215 -10 -19 -2
-102 -6 -185 -9 -82 -4 -190 -9 -240 -11 -49 -2 -142 -7 -205 -10 -106 -5
-379 -28 -510 -41 -30 -4 -125 -16 -210 -29 -85 -12 -198 -23 -250 -23 -52 0
-103 -1 -112 -1 -21 -1 -25 -36 -6 -47 17 -11 113 -25 173 -26 46 -1 191 7
290 17 22 2 74 6 115 10 41 3 125 14 185 25 73 12 189 21 345 25 129 4 280 11
335 16 183 17 605 30 1042 32 237 2 435 5 438 9 4 3 2 15 -4 25 -10 20 -41 24
-336 49 -88 7 -460 15 -466 10z"/>
<path d="M22260 24771 c0 -17 -71 -464 -75 -470 -2 -4 -20 -114 -40 -245 -19
-131 -38 -242 -40 -246 -3 -4 -18 -99 -35 -211 -16 -112 -37 -238 -45 -279 -8
-41 -20 -100 -25 -130 -6 -30 -18 -89 -26 -130 -9 -41 -18 -95 -20 -120 l-4
-45 14 45 c15 52 52 209 67 290 5 30 16 87 24 125 73 374 230 1425 213 1425
-5 0 -8 -4 -8 -9z"/>
<path d="M21090 24661 c-178 -133 -351 -332 -526 -606 -242 -377 -344 -565
-344 -631 0 -53 21 -74 42 -42 19 30 88 202 88 219 0 24 60 131 120 214 31 44
65 96 75 115 38 77 153 245 235 345 112 136 139 166 287 311 79 78 143 144
143 148 0 14 -21 2 -120 -73z"/>
<path d="M21507 24538 c-31 -62 -74 -140 -94 -174 -21 -33 -45 -80 -52 -105
-30 -96 -194 -395 -396 -719 -57 -91 -128 -208 -158 -260 -38 -65 -79 -118
-129 -166 -124 -121 -245 -216 -329 -259 -33 -17 -38 -48 -13 -76 18 -20 32
-17 89 21 22 15 65 40 95 55 30 15 91 51 136 80 69 45 86 62 128 128 26 43 51
77 56 77 11 0 62 83 114 185 23 44 58 105 77 135 33 50 98 167 137 245 8 17
21 37 27 45 13 15 55 92 126 230 92 180 258 603 259 663 0 27 -25 -8 -73 -105z"/>
<path d="M19554 24403 c-16 -278 -9 -1159 11 -1403 2 -25 6 -92 9 -150 9 -157
50 -608 62 -676 l6 -31 -119 -6 c-241 -12 -423 -68 -423 -128 0 -121 269 -202
665 -201 331 1 515 59 515 161 0 37 -23 56 -116 95 -96 40 -182 61 -220 53
-16 -3 -51 -1 -79 3 -27 5 -82 12 -122 15 l-71 7 -7 76 c-4 43 -8 88 -11 102
-7 43 -26 308 -39 525 -19 341 -28 696 -39 1623 0 45 -4 82 -7 82 -4 0 -11
-66 -15 -147z m98 -2359 c14 -60 24 -155 17 -165 -8 -14 -203 5 -319 32 -85
20 -160 54 -167 76 -11 33 138 72 317 82 69 4 129 7 135 6 5 -1 13 -15 17 -31z
m297 12 c10 -9 30 -16 45 -16 51 0 188 -42 215 -66 2 -2 -4 -13 -14 -24 -38
-42 -231 -80 -412 -80 l-83 0 -2 28 c0 15 -2 32 -3 37 -15 96 -16 128 -3 136
7 5 64 7 126 5 86 -3 118 -8 131 -20z"/>
<path d="M22377 24249 c-7 -27 0 -1382 7 -1430 l6 -36 -136 -7 c-241 -12 -439
-56 -498 -111 -31 -29 -32 -47 -5 -91 59 -97 332 -152 697 -141 268 8 438 49
497 119 59 69 19 120 -130 168 -158 50 -159 50 -191 41 -27 -8 -145 2 -164 14
-4 2 -8 73 -9 157 -1 147 -6 281 -16 493 -12 250 -16 325 -20 400 -2 44 -7
139 -10 210 -10 214 -16 261 -28 214z m248 -1553 c17 -8 64 -19 105 -25 100
-15 160 -38 160 -62 0 -43 -157 -91 -339 -105 l-91 -7 0 111 0 112 68 -5 c37
-3 81 -12 97 -19z m-233 -23 c3 -21 5 -69 4 -108 l-1 -70 -90 3 c-262 8 -464
54 -483 110 -14 42 251 96 489 101 l77 1 4 -37z"/>
<path d="M19711 24235 c-1 -21 21 -143 63 -360 29 -148 29 -144 51 -245 8 -41
24 -115 35 -165 10 -49 30 -139 44 -199 15 -59 28 -120 31 -135 4 -25 72 -318
170 -731 25 -107 47 -208 49 -225 6 -49 7 -51 15 -30 10 23 -7 137 -43 291
-34 150 -76 334 -81 364 -8 42 -100 460 -161 730 -49 217 -59 258 -94 400 -17
69 -33 139 -36 155 -9 55 -42 170 -43 150z"/>
<path d="M16845 23541 c-22 -43 -20 -170 4 -249 36 -118 117 -212 184 -212 45
0 33 32 -34 91 -33 30 -69 70 -79 89 -24 47 -40 136 -40 226 0 81 -12 99 -35
55z"/>
<path d="M22621 23555 c-1 -13 72 -412 94 -515 34 -163 75 -264 96 -243 6 6 3
24 -6 47 -9 20 -49 182 -91 359 -67 291 -91 381 -93 352z"/>
<path d="M19376 23379 c-3 -13 -7 -40 -10 -59 -9 -67 -36 -245 -40 -270 -16
-87 -31 -250 -61 -655 -8 -115 -18 -222 -21 -237 -3 -14 -1 -29 5 -32 5 -3 12
11 15 31 6 35 11 87 36 408 5 66 19 199 30 295 49 413 61 532 56 537 -3 3 -7
-5 -10 -18z"/>
<path d="M18625 23300 c-33 -5 -157 -18 -275 -30 -264 -25 -322 -34 -430 -60
-47 -12 -114 -27 -150 -34 -36 -8 -140 -32 -231 -55 -92 -22 -175 -41 -185
-41 -11 -1 -30 -7 -43 -14 -22 -12 -24 -19 -26 -127 -1 -63 -6 -226 -10 -363
-6 -189 -5 -269 5 -333 10 -65 11 -106 3 -177 -11 -89 -8 -146 6 -146 9 0 41
268 42 350 1 30 6 75 11 100 21 103 49 364 52 495 5 174 5 172 29 179 31 9
293 46 402 57 50 5 155 18 235 29 293 40 457 62 540 71 159 16 325 31 353 30
20 0 31 7 39 25 21 46 -5 54 -166 53 -78 -1 -168 -5 -201 -9z"/>
<path d="M14586 22375 c-20 -21 -106 -184 -106 -200 0 -3 -9 -24 -19 -48 -58
-128 -169 -439 -211 -592 -53 -189 -85 -378 -100 -590 -6 -88 -16 -198 -21
-244 -6 -48 -9 -276 -8 -526 1 -243 0 -445 -3 -451 -3 -5 -9 -59 -13 -119 -8
-134 -33 -262 -73 -375 -30 -85 -90 -322 -98 -388 -3 -19 -6 -38 -9 -42 -2 -4
-16 -65 -30 -135 -24 -118 -26 -143 -22 -329 4 -208 15 -286 65 -451 23 -77
46 -171 61 -252 6 -28 19 -71 29 -95 11 -24 25 -57 32 -75 6 -17 20 -39 31
-49 17 -15 19 -15 25 -1 3 9 3 20 0 26 -4 5 -2 12 4 16 12 8 4 44 -26 113 -23
52 -29 76 -80 322 -15 69 -31 145 -36 170 -19 86 -20 319 -4 480 25 246 41
346 81 505 32 130 45 180 65 255 11 41 25 93 31 115 6 22 16 51 21 65 6 14 19
58 29 97 17 66 18 84 8 195 -7 76 -9 247 -6 448 4 298 7 341 35 515 16 105 33
215 36 245 4 30 11 69 15 85 5 17 14 57 21 90 24 113 89 360 125 475 20 63 43
138 51 167 7 28 36 118 63 200 93 278 114 359 99 382 -17 28 -34 26 -62 -4z"/>
<path d="M13285 18916 c-126 -56 -123 -271 4 -409 35 -37 50 -71 100 -213 108
-306 268 -747 310 -854 61 -157 114 -240 137 -217 3 3 8 81 11 174 9 287 11
268 -34 378 -23 55 -58 141 -78 190 -20 50 -49 119 -64 155 -16 36 -43 101
-61 145 -60 146 -90 206 -99 201 -5 -4 -5 -23 1 -48 9 -41 117 -315 213 -543
75 -176 75 -175 74 -297 -1 -222 -6 -217 -139 162 -32 91 -99 279 -149 419
-50 140 -91 260 -91 266 0 6 22 31 48 56 52 49 68 89 77 184 5 57 -17 145 -47
187 -46 66 -144 95 -213 64z m142 -140 c24 -21 28 -31 27 -74 -3 -70 -26 -112
-65 -112 -44 0 -65 15 -94 64 -32 55 -32 81 4 117 38 37 88 39 128 5z"/>
<path d="M15760 18705 c-5 -14 -13 -38 -16 -53 -18 -77 -78 -250 -122 -352
-27 -63 -64 -152 -82 -198 -17 -45 -47 -102 -65 -126 -18 -24 -38 -54 -45 -67
-7 -13 -29 -46 -50 -74 -20 -27 -60 -94 -88 -148 -29 -54 -62 -114 -75 -135
-67 -110 -102 -180 -158 -317 -29 -71 -63 -143 -76 -158 -27 -34 -31 -97 -7
-121 8 -9 18 -16 22 -16 4 0 38 27 76 59 67 57 70 61 106 162 71 200 145 328
373 647 80 112 96 150 165 397 11 39 24 90 30 115 6 25 20 81 31 125 16 65 27
203 22 273 -2 22 -31 13 -41 -13z"/>
<path d="M14535 17600 c-5 -8 -9 -73 -9 -144 -1 -112 -4 -135 -20 -159 -11
-16 -20 -47 -22 -70 -5 -74 -37 -210 -61 -259 -15 -30 -191 -169 -273 -215
-87 -49 -287 -103 -381 -103 -32 0 -39 4 -54 36 -27 57 -7 181 42 265 17 28
130 109 152 109 5 0 12 8 16 19 3 10 14 26 25 36 11 10 20 22 20 27 0 14 -34
9 -59 -8 -17 -12 -45 -17 -105 -16 -44 0 -88 -4 -96 -8 -8 -4 -21 -30 -28 -57
-7 -26 -17 -62 -22 -79 -6 -17 -10 -47 -10 -67 0 -19 -5 -48 -11 -64 -46 -122
7 -223 117 -223 41 0 194 31 269 55 34 11 -55 -37 -154 -81 -72 -33 -98 -50
-113 -76 -35 -56 -119 -147 -167 -181 -55 -38 -311 -169 -363 -186 -51 -17
-61 -49 -36 -121 33 -95 52 -98 199 -37 57 24 183 76 279 117 96 40 211 88
254 106 44 19 83 34 87 34 4 0 11 -10 15 -22 13 -44 237 -564 460 -1070 235
-534 251 -570 277 -628 13 -30 82 -183 152 -340 70 -157 191 -424 268 -595 77
-170 157 -348 177 -395 49 -112 541 -1204 727 -1615 80 -176 153 -338 163
-360 162 -369 181 -409 217 -455 44 -56 66 -80 73 -80 11 0 -30 112 -89 240
-26 58 -54 121 -61 140 -7 19 -46 108 -86 197 -40 89 -89 201 -109 250 -20 48
-60 142 -90 208 -29 66 -92 210 -140 320 -48 110 -98 224 -111 253 -13 29 -24
54 -24 56 0 2 -27 64 -59 138 -33 73 -150 340 -261 593 -111 253 -224 510
-250 570 -151 344 -244 555 -260 590 -10 22 -50 112 -88 200 -139 319 -576
1275 -749 1638 -47 98 -83 183 -80 190 5 12 334 153 341 146 3 -2 61 -132 129
-289 116 -266 286 -649 307 -695 9 -20 132 -299 292 -665 49 -113 97 -223 107
-245 10 -22 105 -238 211 -480 106 -242 207 -474 225 -515 162 -371 256 -584
302 -690 30 -69 113 -258 185 -420 71 -162 146 -331 165 -375 19 -44 43 -98
53 -120 10 -22 64 -143 121 -270 56 -126 141 -318 190 -425 60 -132 101 -240
128 -335 119 -422 146 -517 167 -584 13 -40 31 -112 40 -160 17 -89 38 -136
52 -114 13 21 -14 266 -42 383 -16 63 -52 198 -81 300 -59 205 -81 294 -88
357 -3 23 -49 144 -103 270 -105 245 -373 862 -404 928 -10 22 -43 97 -74 168
-137 313 -175 398 -287 650 -65 147 -174 390 -240 540 -67 149 -150 335 -184
412 -34 77 -124 280 -199 450 -76 171 -146 328 -156 350 -20 42 -264 594 -320
725 -17 41 -40 93 -50 115 -10 22 -68 155 -130 295 -116 264 -127 289 -179
404 -17 38 -28 72 -24 76 5 3 89 40 188 82 99 42 262 111 363 153 176 74 222
102 222 133 0 29 -52 121 -77 138 -24 15 -28 15 -72 -5 -46 -20 -155 -59 -306
-109 -71 -23 -95 -26 -211 -25 -77 1 -141 6 -153 12 -25 14 -75 1 -190 -48
-40 -17 -75 -31 -78 -31 -3 0 41 36 98 79 57 44 125 101 152 128 41 43 49 57
57 109 6 32 10 76 10 97 0 23 10 56 25 81 28 48 31 78 16 161 -6 33 -11 83
-11 111 0 55 -20 97 -35 74z m650 -752 l13 -33 -51 -23 c-29 -13 -101 -44
-162 -69 -60 -25 -170 -72 -242 -104 -73 -32 -137 -59 -143 -59 -5 0 -10 9
-10 20 0 11 -13 47 -30 80 -16 33 -30 62 -30 65 0 3 40 5 88 5 106 0 220 28
407 99 72 28 134 50 138 50 4 1 14 -14 22 -31z m-753 -242 c21 -49 37 -90 36
-91 -3 -2 -457 -191 -485 -202 -8 -3 -13 3 -13 17 0 12 -14 55 -31 96 -18 43
-28 79 -23 84 8 8 49 24 199 80 28 10 97 38 155 63 58 25 109 44 114 43 5 -1
27 -42 48 -90z m-563 -232 c23 -42 40 -81 39 -86 -2 -5 -44 -26 -93 -47 -50
-20 -184 -77 -298 -125 -115 -48 -210 -86 -211 -84 -1 2 -7 15 -13 30 -14 31
-3 41 93 81 82 35 227 112 279 147 24 16 69 59 102 95 32 35 59 64 60 65 1 0
20 -34 42 -76z"/>
<path d="M19449 16968 c-9 -16 -10 -54 -3 -143 5 -66 8 -205 8 -310 0 -104 0
-392 0 -640 1 -717 -1 -870 -12 -1225 -11 -330 -16 -393 -47 -538 -8 -40 -15
-84 -15 -97 0 -12 -11 -62 -25 -110 -14 -48 -30 -120 -36 -161 -22 -163 -88
-390 -179 -623 -22 -57 -20 -78 13 -123 31 -41 45 -42 94 -2 24 20 67 45 95
56 62 23 136 60 208 104 234 140 702 217 1177 194 165 -9 256 -23 473 -74 58
-14 209 -44 335 -66 374 -67 467 -94 815 -238 80 -33 181 -69 225 -81 44 -12
143 -42 220 -66 77 -24 187 -53 245 -65 58 -12 139 -36 180 -52 172 -69 225
-82 721 -172 135 -25 299 -57 365 -71 181 -39 294 -53 469 -60 108 -5 176 -3
210 5 28 6 93 15 145 20 137 12 365 79 751 220 247 91 500 218 781 392 46 29
199 181 253 252 34 45 28 66 -20 66 -42 0 -65 -11 -121 -56 -59 -48 -204 -130
-303 -171 -47 -19 -108 -47 -136 -61 -164 -83 -607 -246 -740 -272 -60 -12
-137 -30 -170 -40 -90 -27 -98 -29 -276 -40 -90 -5 -224 -15 -296 -21 -221
-20 -450 9 -883 112 -354 84 -358 85 -584 161 -203 67 -238 83 -391 181 -176
112 -660 345 -835 402 -47 15 -130 45 -185 67 -55 21 -168 59 -252 83 -84 25
-225 73 -315 109 -258 101 -401 126 -723 126 -363 0 -546 -49 -958 -256 -81
-41 -152 -72 -157 -69 -4 3 2 45 16 93 100 360 124 521 108 721 -4 58 -9 259
-9 446 -1 275 -4 359 -18 440 -10 57 -22 201 -27 335 -9 237 -35 655 -45 720
-3 19 -9 91 -15 160 -10 129 -31 251 -55 330 -8 25 -19 64 -25 88 -12 47 -32
55 -51 20z"/>
<path d="M17733 16788 c-18 -18 -41 -58 -53 -90 -11 -31 -27 -62 -35 -68 -8
-7 -15 -16 -15 -21 0 -12 -62 -106 -109 -164 -22 -27 -65 -83 -96 -123 -31
-40 -62 -75 -71 -79 -23 -8 -125 -159 -176 -258 -40 -78 -49 -110 -72 -235
-55 -312 -58 -357 -51 -720 4 -218 11 -359 20 -405 8 -38 19 -101 25 -140 7
-38 21 -108 32 -155 26 -112 35 -423 18 -600 -7 -69 -16 -224 -20 -345 -4
-121 -13 -269 -19 -330 -6 -60 -16 -166 -21 -235 -5 -69 -17 -147 -25 -175
-17 -54 -27 -97 -50 -218 -12 -68 -12 -96 0 -220 8 -78 19 -173 24 -212 6 -38
10 -99 11 -135 0 -68 21 -125 52 -144 34 -21 40 4 28 105 -23 183 -24 296 -2
409 34 173 45 282 57 540 4 74 17 191 30 260 13 69 28 181 34 250 6 69 17 168
23 220 17 123 17 566 1 690 -13 96 -24 214 -43 460 -11 144 -24 256 -44 385
-16 100 -11 387 9 526 7 56 16 103 18 105 2 2 9 -15 16 -38 14 -52 57 -192 81
-268 10 -30 25 -84 35 -120 53 -192 223 -732 254 -805 8 -19 100 -204 181
-365 21 -42 54 -95 74 -119 46 -55 48 -59 80 -151 14 -41 41 -116 60 -167 19
-50 37 -118 41 -150 4 -32 14 -74 23 -93 16 -34 17 -35 34 -18 22 22 23 62 3
118 -8 23 -20 72 -26 109 -8 52 -29 103 -102 241 -175 336 -243 476 -266 550
-36 118 -70 218 -106 315 -18 50 -46 131 -61 180 -15 50 -31 97 -35 105 -9 18
-39 110 -64 195 -9 33 -25 89 -35 125 -11 36 -24 90 -31 120 -7 30 -29 91 -50
134 -22 44 -41 95 -45 115 -3 20 -12 56 -21 80 -11 31 -14 64 -10 115 11 145
64 229 272 431 62 61 125 130 140 155 16 25 31 47 35 50 4 3 12 15 19 28 6 12
18 22 26 22 8 0 15 5 15 12 0 21 36 -58 50 -109 7 -26 27 -79 45 -118 17 -38
44 -104 60 -145 16 -41 37 -89 46 -107 10 -18 35 -63 55 -100 20 -37 44 -77
54 -88 9 -11 36 -51 58 -90 59 -101 241 -307 343 -388 42 -33 232 -147 247
-147 4 0 29 -19 55 -43 47 -41 49 -44 58 -117 6 -41 15 -104 20 -140 6 -36 14
-105 19 -155 5 -49 14 -121 19 -160 13 -91 13 -825 -1 -980 -5 -66 -11 -140
-13 -165 -2 -25 -10 -86 -18 -137 -12 -76 -20 -100 -53 -150 -21 -32 -52 -89
-68 -128 -16 -38 -57 -128 -92 -200 -34 -71 -75 -168 -89 -215 -14 -47 -41
-128 -60 -180 -18 -52 -38 -111 -44 -130 -6 -19 -20 -64 -31 -100 -28 -87 -43
-146 -70 -265 -13 -55 -29 -112 -36 -126 -7 -15 -23 -62 -34 -105 -12 -44 -32
-115 -45 -159 -12 -44 -28 -105 -35 -135 -6 -30 -27 -95 -45 -145 -19 -49 -43
-121 -55 -160 -43 -140 -82 -246 -119 -327 -17 -36 -31 -69 -31 -73 0 -4 -6
-21 -13 -38 -28 -66 -78 -235 -88 -297 -12 -76 -12 -92 1 -174 5 -33 12 -90
16 -126 10 -109 126 -346 216 -442 17 -18 47 -58 68 -88 35 -51 121 -139 198
-202 17 -15 32 -29 32 -32 0 -3 14 -26 32 -52 19 -28 55 -62 92 -85 l60 -38
-28 -11 c-136 -51 -308 -27 -446 65 -113 74 -149 89 -214 88 -32 -1 -75 -8
-95 -16 -20 -8 -62 -25 -93 -37 -60 -23 -120 -78 -133 -121 -4 -13 -16 -44
-28 -69 -18 -39 -22 -65 -23 -193 -2 -126 -4 -151 -19 -167 -10 -11 -28 -20
-39 -20 -29 0 -50 -15 -42 -29 5 -7 20 -9 42 -5 33 6 34 6 34 -29 0 -22 6 -37
15 -41 12 -4 15 4 15 42 1 66 15 82 68 72 23 -4 54 -5 69 -3 16 2 69 8 119 12
51 5 97 12 103 16 7 3 35 9 63 12 90 10 186 46 236 89 26 23 65 52 87 66 22
14 62 48 88 77 26 28 55 51 63 51 25 0 196 51 251 75 31 14 54 31 58 45 10 30
-34 92 -95 136 -53 38 -58 53 -36 95 7 14 26 65 42 113 21 66 39 101 73 141
26 29 61 72 79 94 18 23 38 41 43 41 6 0 25 12 44 26 19 14 46 29 62 34 l28 8
-25 1 c-15 1 -30 5 -36 11 -13 13 -74 -9 -128 -47 -85 -60 -148 -174 -206
-370 l-22 -73 -60 53 c-100 86 -199 181 -210 200 -9 18 4 111 22 152 26 60
135 278 163 326 56 99 186 248 217 250 8 0 29 9 45 19 109 68 118 70 285 70
128 0 167 -4 216 -19 153 -51 213 -95 254 -189 6 -13 34 -47 64 -75 43 -42 57
-65 76 -122 13 -38 31 -84 40 -100 19 -34 43 -124 61 -230 15 -89 6 -406 -15
-490 -8 -33 -23 -97 -33 -141 -32 -137 -127 -277 -283 -420 -63 -58 -151 -121
-186 -134 -21 -8 -24 -7 -24 15 0 13 -4 27 -10 30 -5 3 -10 16 -10 28 0 13
-19 47 -41 77 -23 30 -65 102 -93 160 l-51 105 45 46 c50 50 204 269 240 339
68 133 63 337 -8 428 -54 68 -120 122 -148 122 -24 0 -25 -3 -19 -27 3 -16 11
-30 16 -31 18 -7 68 -90 90 -148 19 -50 21 -70 15 -148 -8 -110 -27 -193 -58
-251 -24 -45 -204 -265 -217 -265 -4 0 -21 20 -39 45 -31 44 -74 71 -93 59
-27 -17 8 -104 96 -240 29 -45 59 -92 65 -104 12 -23 12 -23 -34 -17 -25 4
-67 2 -94 -3 -26 -5 -96 -14 -157 -20 -141 -14 -262 -28 -400 -45 -117 -15
-225 -27 -395 -45 -58 -6 -139 -15 -180 -20 -41 -5 -104 -12 -140 -15 -36 -3
-76 -8 -90 -11 -24 -4 -34 13 -239 428 -117 238 -225 447 -238 465 -22 29 -31
33 -72 33 -26 0 -56 -6 -66 -14 -18 -13 -18 -16 3 -107 13 -54 24 -142 27
-208 4 -113 4 -115 -21 -138 -30 -27 -29 -34 10 -138 14 -38 26 -78 26 -88 0
-10 -22 -53 -50 -96 -75 -117 -136 -264 -170 -411 -15 -63 -16 -232 -1 -287 5
-21 17 -69 26 -108 29 -119 76 -267 111 -343 28 -62 58 -110 166 -270 26 -39
119 -135 163 -167 22 -17 71 -56 110 -89 38 -32 79 -62 90 -66 12 -4 41 -23
65 -42 130 -99 256 -156 370 -167 47 -5 110 -16 140 -25 108 -31 400 -16 540
29 183 58 263 91 345 144 22 14 60 36 85 50 25 13 68 41 95 61 28 21 60 41 72
44 11 4 29 19 39 34 9 15 33 43 52 62 48 49 189 271 228 360 66 150 87 207
110 300 14 52 33 123 44 158 11 34 20 70 20 80 0 10 4 22 10 28 15 15 38 229
29 277 -19 112 -31 153 -54 183 l-25 33 81 113 c103 144 132 201 174 349 50
174 68 328 62 529 -3 91 -10 188 -17 215 -7 28 -39 118 -73 200 -71 174 -159
318 -253 410 -38 37 -133 85 -171 85 -15 0 -50 7 -78 15 -70 22 -322 32 -378
16 -23 -7 -50 -17 -59 -22 -10 -5 -28 -9 -40 -9 -22 0 -150 -92 -196 -141 -65
-69 -113 -130 -145 -187 -21 -35 -37 -66 -37 -69 0 -3 -20 -33 -44 -67 -25
-34 -52 -87 -61 -117 -10 -30 -26 -78 -36 -107 -10 -29 -19 -63 -19 -75 -1
-19 -6 -16 -42 23 -22 25 -56 68 -75 95 -19 28 -45 64 -57 82 -33 45 -92 242
-106 349 -13 100 -5 167 30 270 11 31 20 64 20 73 0 9 7 29 15 45 9 17 20 50
26 75 5 25 21 69 35 98 13 28 24 57 24 63 0 10 64 180 125 335 24 62 47 140
110 374 20 73 40 141 44 150 17 35 111 338 117 380 4 25 18 63 30 85 13 23 24
46 24 53 0 7 11 36 24 65 26 58 76 213 76 235 0 16 40 115 50 123 11 10 80
157 80 172 0 47 99 276 140 323 35 40 59 171 59 315 0 103 1 106 32 290 19
114 21 168 22 632 1 280 5 508 8 508 3 0 11 -24 17 -52 6 -29 23 -93 37 -143
36 -126 41 -275 21 -639 -16 -280 -16 -300 0 -317 41 -45 60 -19 69 96 3 27 7
56 10 64 7 18 29 352 28 431 0 62 -19 278 -33 385 -18 137 -38 195 -105 300
-76 119 -106 145 -295 254 -69 39 -168 105 -220 146 -52 40 -127 99 -167 130
-40 30 -92 81 -116 113 -47 62 -155 245 -177 302 -7 19 -40 97 -72 173 -32 76
-67 175 -78 220 -11 45 -27 98 -35 117 -8 19 -24 73 -35 120 -21 86 -59 160
-83 160 -7 0 -27 -15 -44 -32z m-718 -7713 c54 -104 114 -221 135 -260 21 -38
65 -123 99 -188 l61 -119 0 -209 c0 -115 -3 -209 -7 -209 -5 0 -20 35 -34 78
-15 42 -47 124 -72 182 -25 58 -62 148 -82 200 -20 52 -43 109 -51 127 -8 17
-14 33 -14 36 0 3 -29 71 -65 152 l-64 145 -5 131 c-2 72 -3 129 -2 127 2 -1
47 -88 101 -193z m960 168 c17 -26 17 -27 0 -38 -10 -5 -46 -35 -80 -65 -33
-30 -78 -68 -98 -84 -20 -15 -37 -34 -37 -42 0 -17 36 -19 46 -3 9 15 199 105
240 113 22 5 45 0 85 -19 30 -13 62 -25 72 -25 28 0 20 -18 -34 -80 -56 -63
-119 -100 -209 -120 -30 -7 -68 -17 -85 -22 -16 -6 -68 -14 -115 -19 -47 -4
-106 -11 -132 -15 -41 -6 -47 -4 -58 17 -15 26 -8 125 15 209 12 44 24 63 67
102 29 27 63 56 76 65 31 22 137 51 188 52 35 1 45 -4 59 -26z m-949 -808 c19
-49 40 -99 46 -110 8 -13 11 -67 9 -156 -2 -100 2 -153 14 -200 27 -108 64
-202 97 -249 17 -25 59 -85 92 -135 108 -158 249 -288 451 -412 44 -27 223
-112 270 -127 168 -57 355 -85 355 -52 0 29 -35 39 -220 66 -164 23 -420 158
-614 322 -71 61 -75 65 -142 154 -82 109 -108 151 -128 209 -10 28 -24 62 -31
76 -27 51 -48 121 -58 192 -18 129 -19 142 -6 130 7 -7 12 -33 11 -59 -2 -48
18 -93 58 -129 18 -17 23 -17 62 -2 24 8 80 18 124 22 l82 6 -5 -43 c-4 -35 2
-57 31 -118 35 -71 100 -160 139 -188 10 -8 35 -30 56 -50 66 -65 147 -122
182 -128 19 -3 43 -9 54 -14 135 -54 299 -34 427 54 29 21 79 54 111 74 123
77 196 149 272 266 101 157 131 215 139 266 10 63 16 80 27 80 5 0 22 8 37 19
86 60 142 91 179 99 l42 10 -6 -52 c-6 -63 -38 -199 -57 -246 -59 -148 -76
-191 -94 -235 -11 -27 -25 -67 -31 -89 -9 -36 -9 -37 8 -22 10 9 25 16 34 16
15 0 99 152 124 225 36 103 81 318 85 410 3 46 6 51 43 72 22 13 57 23 77 23
41 0 55 -15 79 -82 19 -54 -8 -196 -82 -441 -34 -111 -64 -211 -66 -222 -10
-36 -111 -238 -153 -305 -53 -86 -117 -148 -220 -216 -47 -31 -100 -70 -119
-87 -84 -72 -368 -172 -526 -184 -38 -2 -87 -11 -108 -19 -48 -18 -78 -18
-185 1 -119 21 -143 28 -256 69 -97 35 -292 147 -360 206 -17 15 -62 48 -101
73 -38 25 -85 58 -103 73 -76 68 -271 370 -302 469 -7 22 -28 79 -46 127 -23
59 -38 123 -49 203 -29 222 -16 339 53 487 16 35 32 74 36 88 3 14 15 41 27
60 l22 35 39 -110 c22 -61 55 -150 74 -200z m1919 180 c46 -10 73 -42 86 -101
9 -40 9 -60 0 -83 -6 -17 -16 -45 -22 -61 -14 -38 -103 -103 -167 -124 -26 -8
-117 -22 -202 -31 -85 -8 -207 -24 -270 -35 -164 -28 -406 -58 -525 -66 -44
-3 -116 -13 -160 -21 -44 -9 -116 -17 -160 -18 -44 0 -101 -4 -126 -9 l-47 -8
4 69 c2 37 9 111 16 164 6 53 9 106 6 117 -5 19 2 22 86 36 50 8 134 20 186
26 52 6 127 15 165 20 39 5 111 14 160 20 50 6 137 17 195 25 58 8 148 19 200
25 233 26 292 33 400 50 63 10 122 17 130 15 8 -2 29 -6 45 -10z m-133 -480
c7 -7 -16 -73 -30 -87 -7 -7 -12 -16 -12 -20 0 -19 -117 -188 -169 -244 -31
-33 -74 -81 -97 -106 -46 -51 -172 -139 -234 -164 -42 -17 -120 -16 -275 4
-97 13 -189 66 -256 149 -69 85 -116 153 -130 190 -15 38 -28 123 -19 128 3 2
58 8 121 14 131 12 233 24 374 46 55 8 134 20 175 26 41 6 102 15 135 20 33 5
127 15 208 23 82 8 151 17 155 20 7 8 47 8 54 1z"/>
<path d="M14435 15037 c-6 -7 -21 -48 -34 -92 -21 -69 -25 -106 -28 -275 -2
-107 -8 -264 -13 -349 -6 -85 -10 -249 -10 -365 -1 -200 -9 -360 -30 -561 -17
-171 -28 -233 -65 -375 -28 -108 -41 -179 -55 -305 -6 -55 -16 -134 -21 -175
-11 -75 -32 -552 -31 -685 1 -170 19 -593 26 -603 4 -7 12 -94 17 -195 5 -100
14 -234 18 -297 5 -63 19 -254 30 -425 19 -292 31 -388 65 -537 7 -35 21 -110
30 -168 9 -58 21 -133 26 -166 15 -95 16 -94 -31 -94 -55 0 -124 -23 -254 -85
-103 -49 -117 -60 -217 -161 -118 -120 -135 -141 -226 -269 -45 -63 -108 -175
-132 -235 -12 -30 -31 -75 -43 -100 -27 -61 -33 -84 -113 -385 -43 -162 -30
-314 47 -579 49 -166 126 -283 276 -420 82 -75 134 -108 148 -94 14 13 -44 94
-113 159 -43 41 -87 88 -97 104 -11 17 -22 32 -25 35 -14 12 -79 149 -91 190
-7 25 -16 50 -20 55 -15 20 -39 160 -39 225 0 114 28 363 51 450 22 85 92 252
150 359 56 103 169 238 287 345 106 96 182 156 196 156 3 0 39 15 78 33 40 18
89 39 108 47 19 7 47 22 62 32 l26 18 11 -32 c17 -48 13 -64 -16 -83 -87 -55
-221 -167 -266 -222 -104 -127 -152 -193 -178 -240 -14 -26 -45 -84 -69 -128
-24 -44 -52 -111 -62 -150 -11 -38 -26 -94 -34 -124 -26 -97 -44 -271 -35
-341 7 -58 9 -62 18 -40 5 14 13 66 17 115 15 218 75 409 180 585 12 19 30 52
41 74 18 36 118 140 190 198 17 14 66 49 110 78 44 29 92 61 107 71 l27 19 5
-33 c43 -292 79 -450 132 -567 l28 -62 -30 -27 c-30 -26 -126 -144 -156 -192
-9 -14 -32 -72 -51 -130 -90 -267 -103 -557 -32 -726 8 -20 13 -38 11 -40 -10
-10 -101 99 -130 157 -49 96 -64 162 -71 295 -3 66 -8 151 -11 188 -4 41 -1
93 6 130 18 83 94 254 143 319 22 28 50 71 63 95 12 24 34 57 48 73 28 34 49
90 44 122 -2 17 -11 24 -32 26 -16 2 -33 -1 -39 -7 -6 -6 -25 -11 -42 -11 -37
0 -60 -23 -127 -126 -91 -139 -168 -319 -198 -464 -10 -47 -25 -116 -34 -153
-26 -112 -18 -207 28 -337 9 -25 16 -56 16 -68 0 -13 27 -80 61 -149 84 -174
120 -209 315 -304 82 -39 155 -79 164 -87 24 -24 136 -72 183 -78 68 -9 266
12 337 35 36 12 138 58 228 102 186 93 241 136 329 263 31 44 60 83 64 86 17
12 73 145 96 228 42 150 52 205 53 279 0 68 -1 72 -32 98 -18 15 -55 48 -83
74 -111 106 -192 135 -408 150 -194 12 -214 6 -345 -103 -148 -122 -172 -154
-216 -290 -23 -70 -22 -246 2 -311 41 -118 117 -215 167 -215 29 0 37 11 64
83 28 76 27 101 -8 145 -37 48 -51 92 -51 162 0 97 35 163 101 190 16 7 29 15
29 19 0 4 35 23 78 43 159 75 145 71 275 64 136 -8 168 -18 230 -75 44 -40 44
-41 36 -88 -4 -27 -15 -68 -24 -93 -9 -25 -23 -67 -32 -95 -20 -59 -38 -88
-118 -186 -90 -112 -117 -132 -290 -219 -192 -95 -254 -116 -372 -125 -105 -9
-131 -3 -252 58 -66 33 -92 52 -121 92 -85 113 -119 405 -71 608 13 53 79 184
139 275 21 31 47 71 58 88 27 44 151 156 204 186 25 14 61 35 82 47 54 33 186
70 248 71 19 0 80 9 135 20 229 47 213 46 360 15 99 -22 260 -146 332 -257 24
-36 43 -69 43 -72 0 -14 102 -176 111 -176 14 0 2 87 -22 160 -42 130 -75 180
-199 300 -152 149 -156 150 -435 150 -207 0 -263 -7 -407 -50 -107 -31 -159
-54 -222 -94 -31 -20 -59 -36 -62 -36 -4 0 -29 -16 -56 -36 -28 -19 -51 -34
-52 -32 -21 29 -44 143 -50 245 -3 50 -10 111 -15 135 -6 24 -15 86 -21 138
-7 52 -21 129 -32 170 -14 52 -21 115 -23 206 -4 179 -40 489 -57 500 -4 3 -8
48 -8 101 0 53 -6 130 -14 172 -8 42 -20 135 -26 206 -7 72 -16 157 -21 190
-5 33 -9 104 -9 158 0 54 -4 139 -10 190 -12 118 -20 1118 -9 1183 4 27 15 87
23 134 10 54 16 146 16 250 0 111 5 191 16 245 9 44 20 98 24 120 4 22 8 66 9
98 0 33 3 62 6 66 2 4 12 57 22 117 13 82 17 159 16 314 -5 616 -11 870 -23
1005 -22 229 -14 486 19 635 6 25 10 48 11 53 0 12 -44 7 -55 -6z"/>
<path d="M7306 14255 c-9 -9 -16 -21 -16 -26 0 -5 -9 -22 -19 -37 -19 -27 -34
-97 -51 -242 -5 -41 -16 -109 -25 -150 -9 -41 -29 -165 -45 -275 -25 -170 -30
-230 -29 -395 0 -107 5 -217 10 -245 6 -27 14 -180 19 -340 8 -275 10 -296 38
-398 16 -59 33 -112 38 -117 5 -5 63 -12 129 -15 94 -5 132 -3 175 9 76 22
131 33 230 46 47 7 117 20 155 30 162 43 517 107 735 134 95 12 186 13 525 4
226 -5 527 -7 670 -5 244 5 298 8 385 23 19 3 82 10 140 14 204 17 397 40 535
65 156 28 170 30 375 45 300 22 500 43 720 76 233 35 556 91 680 119 58 13
132 29 165 35 81 16 155 55 155 80 0 18 -10 19 -197 22 -109 1 -263 2 -343 2
-202 1 -807 -23 -910 -34 -47 -6 -147 -7 -222 -4 -82 4 -201 1 -294 -6 -159
-13 -208 -11 -594 21 -287 24 -359 35 -690 110 -47 10 -128 26 -180 34 -52 9
-140 27 -195 40 -242 59 -708 75 -1040 35 -134 -16 -332 -49 -400 -66 -67 -18
-193 -14 -266 8 -81 24 -134 106 -159 249 -6 35 -29 127 -50 204 -22 77 -44
169 -50 205 -6 36 -20 121 -32 190 -16 91 -24 185 -28 344 -5 225 -9 245 -44
211z"/>
<path d="M17953 13333 c-67 -80 -106 -132 -129 -173 -10 -19 -21 -37 -24 -40
-11 -9 -60 -117 -60 -130 0 -7 -17 -47 -39 -89 -21 -42 -44 -94 -51 -116 -7
-22 -19 -49 -26 -60 -8 -11 -14 -26 -14 -33 0 -8 -16 -53 -35 -101 -67 -168
-120 -449 -130 -686 -3 -77 -8 -166 -11 -197 -5 -55 11 -405 23 -478 3 -19 7
-152 10 -295 4 -245 3 -268 -21 -400 -27 -153 -57 -268 -86 -330 -10 -22 -49
-72 -87 -112 -91 -94 -127 -161 -126 -230 2 -62 22 -95 91 -150 26 -21 65 -54
88 -74 42 -37 101 -63 131 -57 14 2 10 8 -14 23 -43 27 -176 176 -197 219 -40
85 -12 162 89 244 114 94 151 184 195 467 12 79 13 390 0 435 -5 19 -11 62
-14 95 -7 74 -16 167 -21 220 -12 115 -16 527 -6 670 13 198 57 433 110 585
42 125 147 388 160 405 5 5 10 17 12 25 6 25 117 221 156 277 13 17 23 34 23
37 0 3 14 26 32 51 47 66 28 65 -29 -2z"/>
<path d="M18878 10214 c-15 -15 -8 -24 20 -24 79 -1 268 -68 354 -125 70 -47
111 -97 156 -193 26 -56 27 -62 27 -247 0 -121 -4 -201 -12 -220 -6 -16 -14
-47 -17 -67 -5 -37 -4 -37 18 -23 53 35 75 133 76 326 0 118 -4 157 -20 205
-55 168 -162 272 -362 352 -34 14 -230 27 -240 16z"/>
<path d="M18685 10118 c-99 -70 -206 -201 -264 -322 -53 -112 -89 -261 -52
-220 4 5 27 55 50 111 73 174 177 311 322 425 l34 27 -30 0 c-16 0 -43 -9 -60
-21z"/>
<path d="M16058 7306 c-33 -68 -110 -178 -161 -229 -84 -84 -193 -176 -249
-210 -29 -18 -69 -44 -88 -59 -41 -31 -262 -138 -335 -161 -166 -54 -249 -68
-445 -77 -112 -5 -210 -5 -230 0 -56 14 -120 38 -188 71 -69 34 -92 32 -92 -6
0 -59 193 -136 374 -150 l89 -6 70 -60 c39 -32 76 -59 82 -59 6 0 22 -8 35
-17 31 -22 197 -89 266 -108 103 -28 297 -38 475 -25 337 26 494 -19 602 -174
10 -14 36 -36 59 -47 22 -11 62 -35 87 -53 86 -59 127 -74 251 -92 52 -7 114
-14 137 -14 56 0 145 24 194 52 142 83 213 133 249 179 43 55 47 67 26 75 -21
8 -63 -17 -131 -78 -141 -126 -230 -162 -395 -161 -122 0 -183 20 -333 106
-67 38 -93 59 -107 86 -17 34 -61 75 -121 113 -35 22 -145 58 -194 64 -22 2
-75 9 -118 16 -62 9 -90 9 -145 -2 -97 -19 -416 -17 -506 4 -38 9 -84 23 -102
31 -19 8 -49 22 -68 30 -19 8 -39 15 -46 15 -13 0 -120 106 -120 119 0 5 30
11 68 14 59 4 225 52 275 78 13 8 31 4 70 -15 83 -41 134 -47 467 -56 276 -7
329 -11 430 -33 171 -36 187 -47 250 -164 101 -190 201 -245 445 -245 104 0
130 4 199 27 96 33 140 57 184 98 34 32 88 114 80 122 -9 9 -345 -24 -423 -42
-59 -13 -152 -15 -201 -3 -67 16 -113 64 -144 148 -65 178 -144 242 -357 288
-99 21 -138 24 -323 24 -115 0 -210 4 -210 8 0 5 18 18 40 31 22 12 54 34 71
48 33 28 164 188 215 263 51 74 121 249 106 264 -17 18 -49 4 -64 -28z"/>
</g>
</svg>
